# xmcd
#
# Track frame offsets:
#	150
#	14692
#	31272
#	48922
#	62837
#	75897
#	84982
#	100342
#	113297
#	126622
#	146037
#	161581
#	174653
#	191693
#	205799
#	224014
#	240628
#	256641
#	273914
#	285033
#
# Disc length: 3975 seconds
# Revision: 0
# Processed by: cddbd v1.5.2PL0 Copyright (c) Steve Scherf et al.
# Submitted via: dBpowerAMP V12.0
#
DISCID=0f0f8514
DTITLE=Various Artist - The Sound of Nashville
DYEAR=2016
DGENRE=Country
TTITLE0=Glen Campbell - Rhinestone Cowboy
TTITLE1=Blake Sheldon - Ol' Red
TTITLE2=Elvis Presley - Tomorrow Never Comes
TTITLE3=The Henningsens - American Beautiful
TTITLE4=Hank Williams With His Drifting Cowboys - Hey, Good Lookin'
TTITLE5=Frankie Laine with Jimmy Carroll and His Orchestra - Rawhide
TTITLE6=Martina McBride - Independence Day
TTITLE7=June Carter Cash - Country Girl
TTITLE8=Miranda Lambert - Mama's Broken Heart
TTITLE9=Kris Kristofferson - Me And Bobby McGee
TTITLE10=Kenny Chesney - Never Wanted Nothing More
TTITLE11=Waylon Jennings - Are You Sure Hank Done It This Way
TTITLE12=Kellie Pickler - Best Days Of Your Life
TTITLE13=Don Williams - Lone Star State Of Mind
TTITLE14=Mary Chapin Carpenter - He Thinks He'll Keep Her
TTITLE15=Gretchen Wilson - Redneck Woman
TTITLE16=Patty Loveless - Blame It On Your Heart
TTITLE17=Alan Jackson with Jimmy Buffett - It's Five O' Clock Somewhere
TTITLE18=Roger Miller - King Of The Road
TTITLE19=Tanya Tucker - Delta Dawn
EXTD=
EXTT0=
EXTT1=
EXTT2=
EXTT3=
EXTT4=
EXTT5=
EXTT6=
EXTT7=
EXTT8=
EXTT9=
EXTT10=
EXTT11=
EXTT12=
EXTT13=
EXTT14=
EXTT15=
EXTT16=
EXTT17=
EXTT18=
EXTT19=
PLAYORDER=
